<svg id="Layer_1" data-name="Layer 1" xmlns="http://www.w3.org/2000/svg" viewBox="0 0 459 421"><defs><style>.cls-1{fill:none;stroke:#000;stroke-miterlimit:10;stroke-width:30px;}</style></defs><path class="cls-1" d="M680.87,284H630.63a40.84,40.84,0,0,1-38-25.85l-5.37-13.58A30.92,30.92,0,0,0,558.51,225H490.62a30.91,30.91,0,0,0-29.42,21.38l-3,9.37A40.87,40.87,0,0,1,419.31,284H372.05A60.09,60.09,0,0,0,312,344.09V555.91A60.09,60.09,0,0,0,372.05,616H680.86A60.09,60.09,0,0,0,741,555.9V344.09A60.08,60.08,0,0,0,680.87,284Z" transform="translate(-296.95 -210)"/><circle class="cls-1" cx="229.5" cy="250.5" r="103.5"/><circle cx="368.05" cy="133" r="20"/></svg>