<svg id="Layer_1" data-name="Layer 1" xmlns="http://www.w3.org/2000/svg" viewBox="0 0 608 608"><defs><style>.cls-1{fill:#f3f3f3;}.cls-2{fill:none;stroke:#000;stroke-miterlimit:10;stroke-width:25.17px;}</style></defs><circle class="cls-1" cx="304" cy="304" r="304"/><path class="cls-2" d="M648.3,399.2H606.15a34.28,34.28,0,0,1-31.88-21.68l-4.5-11.4a26,26,0,0,0-24.15-16.43h-57A26,26,0,0,0,464,367.64l-2.55,7.86a34.27,34.27,0,0,1-32.6,23.7H389.15a50.42,50.42,0,0,0-50.42,50.43V627.38a50.42,50.42,0,0,0,50.42,50.43H648.29a50.44,50.44,0,0,0,50.44-50.44V449.63A50.43,50.43,0,0,0,648.3,399.2Z" transform="translate(-214.73 -239.75)"/><circle class="cls-2" cx="304" cy="307.57" r="86.85"/><circle cx="420.26" cy="208.97" r="16.78"/></svg>