<svg id="Layer_1" data-name="Layer 1" xmlns="http://www.w3.org/2000/svg" viewBox="0 0 2150 1483.33"><defs><style>.cls-1{fill:#e3e3e3;fill-rule:evenodd;}.cls-2{fill:#bfbfbf;}</style></defs><path class="cls-1" d="M2588.67,1121.89H677.56a119.45,119.45,0,0,0-119.45,119.44V2485.78a119.44,119.44,0,0,0,119.45,119.44H2588.67a119.44,119.44,0,0,0,119.44-119.44V1241.33A119.45,119.45,0,0,0,2588.67,1121.89ZM2547,2144.11H719.22V1349.67H2547Z" transform="translate(-558.11 -1121.89)"/><circle class="cls-2" cx="204.17" cy="105.56" r="43.06"/><circle class="cls-2" cx="315.28" cy="105.56" r="43.06"/><circle class="cls-2" cx="426.39" cy="105.56" r="43.06"/><rect class="cls-2" x="473.61" y="1102.5" width="1022.22" height="77.78"/><rect class="cls-2" x="473.61" y="1212.5" width="744.44" height="77.78"/><circle class="cls-2" cx="266.67" cy="1196.39" r="105.56"/></svg>