<svg id="Layer_1" data-name="Layer 1" xmlns="http://www.w3.org/2000/svg" viewBox="0 0 278.53 283.88"><defs><style>.cls-1{fill:#fff;}</style></defs><path class="cls-1" d="M613.41,534.59c-.35-21.38-5.58-29.74-19-30.17-9.81-.31-19.63,0-29.45-.09-5.76-.06-9,.21-11.31-.33h-51c-19.51.53-45.37.56-64.4,0H390.75a9.55,9.55,0,0,1-4.64.4c-3.1-.47-6.24-.07-9.36-.06-8.48,0-17-.35-25.44.22-9.39.63-15.35,9.3-15.9,23.94-.55,14.48-.54,29.1,0,43.59.49,13.84,5.71,21.69,14.54,24.09,3,.81,5.92,1.66,8.93,2.51.94,5.93,1.92,10.77,2.45,15.74q4.49,43,8.8,86c1.95,19.35,3.75,38.74,5.82,58.05,2.2,20.63,8.15,28.84,20.82,29.38,1.78.08,3.57,0,5.35,0H546.71c2.68,0,5.36,0,8-.07,8.14-.3,13.25-7.57,16.19-19.27a89.49,89.49,0,0,0,1.92-12.63c4.71-45.85,9.31-91.72,14.09-137.55.73-7,.93-14.44,4-20.65,1.85-.44,3.57-.88,5.31-1.26,12.72-2.76,16.84-10.16,17.12-31.29C613.55,555,613.58,544.76,613.41,534.59Zm-38,84.16c-4.2,40.81-8.53,81.58-12.64,122.42-2.8,27.72-3.27,28.72-20.18,28.74q-68.28.09-136.54,0c-17.09,0-17.39-.74-20.19-28.6-4.11-40.84-8.39-81.64-12.61-122.46-.65-6.4-1.68-12.78-.19-20.23,2.44-.71,5-2,7.53-2.08,8.48-.28,17-.13,25.43-.13,51.76,0,103.53-.07,155.28.1,4.77,0,9.83-2.1,14.21,2.75C577.26,606,576.07,612.38,575.41,618.75Zm8.86-40.15q-109.8,0-219.6,0a86.39,86.39,0,0,1-12-.57c-3.4-.49-5.87-4.32-6-10-.24-11.59-.27-23.24.11-34.82.22-6.79,2.8-10.29,7.05-10.81a88.87,88.87,0,0,1,10.7-.28H475.64q55.58,0,111.14,0c15.2,0,15.66.89,15.72,25.89C602.57,578.56,602.57,578.6,584.27,578.6Z" transform="translate(-335 -504)"/><path class="cls-1" d="M536.26,648.07c-2.13,25.71-4.31,52.34-6.6,78.94-.18,2-.89,4.53-1.85,5.58-1.36,1.48-3.29,2.76-4.81,2.36s-3-2.64-4-4.73a14.1,14.1,0,0,1-.74-6.21q3.56-42.06,7.33-84.09c.57-6.3,3.16-9.49,6.3-8.8,2.58.57,4.26,4.15,4.38,9.46C536.3,642.75,536.26,644.93,536.26,648.07Z" transform="translate(-335 -504)"/><path class="cls-1" d="M430.42,724.84c0,5.72-1.92,9.56-4.58,10.34-3.29,1-6.16-2.07-6.78-7.89-.84-7.86-1.32-15.82-2-23.73-1.29-15.11-2.67-30.19-3.88-45.31-.46-5.75-.69-11.58-.77-17.38-.08-5.34,1.64-9,4.19-9.76,3.07-.94,5.87,2.32,6.44,8.48,1.92,20.82,3.65,41.69,5.45,62.55C429.17,710,429.83,718,430.42,724.84Z" transform="translate(-335 -504)"/><path class="cls-1" d="M479.74,684.59c0,11.6.05,23.2,0,34.8a66.36,66.36,0,0,1-.72,10.72c-.68,3.91-2.81,5.84-5.17,4.92a8,8,0,0,1-4.07-4.51c-.83-2.29-.85-5.58-.85-8.43q-.09-39.15,0-78.3a43,43,0,0,1,.48-6.44c.61-3.92,2.25-6,4.76-6.15s4.44,1.83,5,5.67a104.17,104.17,0,0,1,.64,12.93c.08,11.59,0,23.19,0,34.79Z" transform="translate(-335 -504)"/></svg>