<svg id="Layer_1" data-name="Layer 1" xmlns="http://www.w3.org/2000/svg" viewBox="0 0 2065.49 2332.81"><defs><style>.cls-1{fill:#e3e3e3;fill-rule:evenodd;}</style></defs><path class="cls-1" d="M2941.91,3102.9H931.08a27.35,27.35,0,0,1-27.33-27.33V1064.73a27.34,27.34,0,1,1,54.67,0V3048.2H2941.91a27.35,27.35,0,0,1,0,54.7Z" transform="translate(-903.75 -770.09)"/><path class="cls-1" d="M1584.35,3102.9h-444.8a27.36,27.36,0,0,1-27.34-27.33V2248a27.35,27.35,0,0,1,27.34-27.34h444.8a27.36,27.36,0,0,1,27.34,27.34v827.53A27.36,27.36,0,0,1,1584.35,3102.9Z" transform="translate(-903.75 -770.09)"/><path class="cls-1" d="M2224.46,3102.9H1779.68a27.36,27.36,0,0,1-27.35-27.33V1782.36a27.36,27.36,0,0,1,27.35-27.34h444.78a27.34,27.34,0,0,1,27.33,27.34V3075.55A27.33,27.33,0,0,1,2224.46,3102.9Z" transform="translate(-903.75 -770.09)"/><path class="cls-1" d="M2861.69,3102.9H2416.91a27.36,27.36,0,0,1-27.35-27.33V2248a27.36,27.36,0,0,1,27.35-27.34h444.78A27.37,27.37,0,0,1,2889,2248v827.53A27.35,27.35,0,0,1,2861.69,3102.9Z" transform="translate(-903.75 -770.09)"/><path class="cls-1" d="M1358.18,2000.25a27.34,27.34,0,0,1-21-44.81l422-507.65a27.34,27.34,0,1,1,42,35l-422.06,507.64a27.25,27.25,0,0,1-21,9.86Zm966-288.22a27.25,27.25,0,0,1-14.59-4.24L1922.78,1463.5a27.33,27.33,0,1,1,29.19-46.21l386.79,244.29a27.33,27.33,0,0,1-14.61,50.45Zm134-39.51a27.37,27.37,0,0,1-24.79-38.85l299.32-645.84a27.34,27.34,0,1,1,49.61,23L2483,1656.66A27.39,27.39,0,0,1,2458.14,1672.52Z" transform="translate(-903.75 -770.09)"/><path class="cls-1" d="M1290.57,2187.47c-73.43,0-133.18-59.75-133.18-133.19s59.74-133.18,133.18-133.18,133.15,59.74,133.15,133.18S1364,2187.47,1290.57,2187.47Z" transform="translate(-903.75 -770.09)"/><path class="cls-1" d="M1847.88,1517.06c-73.42,0-133.15-59.73-133.15-133.19s59.73-133.17,133.15-133.17,133.2,59.73,133.2,133.17A133.33,133.33,0,0,1,1847.88,1517.06Z" transform="translate(-903.75 -770.09)"/><path class="cls-1" d="M2413.66,1874.37c-73.44,0-133.19-59.72-133.19-133.17S2340.21,1608,2413.66,1608s133.18,59.73,133.18,133.18S2487.06,1874.37,2413.66,1874.37Z" transform="translate(-903.75 -770.09)"/><path class="cls-1" d="M2801.93,1036.45c-73.4,0-133.17-59.72-133.17-133.18s59.73-133.18,133.17-133.18,133.19,59.73,133.19,133.18S2875.37,1036.45,2801.93,1036.45Z" transform="translate(-903.75 -770.09)"/></svg>