<svg id="Layer_1" data-name="Layer 1" xmlns="http://www.w3.org/2000/svg" viewBox="0 0 345 345"><defs><style>.cls-1{fill:purple;}.cls-2{fill:#fff;}</style></defs><circle class="cls-1" cx="172.5" cy="172.5" r="172.5"/><path class="cls-2" d="M349.88,260.27a27.92,27.92,0,0,0-5.77-12.21,23.57,23.57,0,0,0-1.89-2.1,27.88,27.88,0,0,0-19.74-8.18H177A27.91,27.91,0,0,0,157.28,246a25.23,25.23,0,0,0-1.89,2.1,27.54,27.54,0,0,0-5.74,12.21,26.46,26.46,0,0,0-.55,5.43V367.86a27.62,27.62,0,0,0,2.32,11.08,27.3,27.3,0,0,0,5.86,8.65c.63.63,1.25,1.2,1.93,1.77A27.89,27.89,0,0,0,177,395.78H322.48a27.73,27.73,0,0,0,17.81-6.44,24.38,24.38,0,0,0,1.93-1.75,27.89,27.89,0,0,0,5.89-8.65v0a27.67,27.67,0,0,0,2.29-11.06V265.7A28.72,28.72,0,0,0,349.88,260.27Zm-182.49-4.21a13.47,13.47,0,0,1,9.63-4H322.48a13.42,13.42,0,0,1,9.63,4,15,15,0,0,1,1.23,1.43L257.1,323.93a11,11,0,0,1-7.35,2.76,11.14,11.14,0,0,1-7.35-2.76l-76.21-66.47A11.13,11.13,0,0,1,167.39,256.06Zm-4,111.8V272.25l55.17,48.12-55.14,48.08A3.76,3.76,0,0,1,163.39,367.86Zm159.09,13.63H177a13.47,13.47,0,0,1-6.75-1.79L228.45,329l5.43,4.72a24.18,24.18,0,0,0,31.77,0l5.42-4.72,58.16,50.7A13.44,13.44,0,0,1,322.48,381.49Zm13.63-13.63a5.62,5.62,0,0,1,0,.59L281,320.4l55.16-48.13Z" transform="translate(-77.25 -144.28)"/></svg>