<svg id="Layer_1" data-name="Layer 1" xmlns="http://www.w3.org/2000/svg" viewBox="0 0 345 345"><defs><style>.cls-1{fill:purple;}.cls-2{fill:#fff;}</style></defs><circle class="cls-1" cx="172.5" cy="172.5" r="172.5"/><path class="cls-2" d="M210.75,226.17c-8.9.42-15,1.84-20.29,3.92a42.78,42.78,0,0,0-24.41,24.49c-2.06,5.32-3.45,11.4-3.84,20.31s-.48,11.76-.44,34.47.14,25.55.58,34.47,1.83,15,3.92,20.28a42.76,42.76,0,0,0,24.5,24.41c5.32,2.05,11.4,3.46,20.3,3.84s11.77.49,34.47.44,25.56-.14,34.48-.57,15-1.84,20.27-3.92a42.71,42.71,0,0,0,24.4-24.5c2.07-5.32,3.47-11.4,3.85-20.3S329,331.74,329,309s-.15-25.55-.57-34.47-1.84-15-3.92-20.29a42.71,42.71,0,0,0-24.5-24.4c-5.32-2.06-11.4-3.47-20.3-3.85s-11.77-.48-34.47-.44-25.56.14-34.47.58m1,151.15c-8.15-.35-12.58-1.71-15.53-2.84a26.06,26.06,0,0,1-9.63-6.24,25.77,25.77,0,0,1-6.27-9.6c-1.14-2.95-2.52-7.37-2.9-15.52-.42-8.81-.51-11.46-.55-33.78s0-25,.42-33.78c.35-8.15,1.71-12.58,2.84-15.53a27.69,27.69,0,0,1,15.84-15.9c2.95-1.15,7.37-2.52,15.52-2.91,8.82-.42,11.46-.5,33.78-.55s25,0,33.79.43c8.15.35,12.58,1.7,15.53,2.84a27.76,27.76,0,0,1,15.9,15.84c1.15,2.94,2.52,7.36,2.9,15.51.42,8.82.52,11.47.56,33.79s0,25-.43,33.78c-.35,8.15-1.71,12.58-2.84,15.53a27.69,27.69,0,0,1-15.84,15.9c-2.95,1.15-7.37,2.52-15.52,2.91-8.81.41-11.46.5-33.79.55s-25-.05-33.78-.43m68.17-112.81a10,10,0,1,0,10-10h0a10,10,0,0,0-10,10m-77.45,44.77a42.94,42.94,0,1,0,42.85-43,42.94,42.94,0,0,0-42.85,43m15.06,0a27.88,27.88,0,1,1,27.93,27.82,27.88,27.88,0,0,1-27.93-27.82h0" transform="translate(-72.88 -136.7)"/></svg>