<svg id="Layer_1" data-name="Layer 1" xmlns="http://www.w3.org/2000/svg" viewBox="0 0 417 387.02"><defs><style>.cls-1,.cls-2{fill:none;stroke:#000;stroke-miterlimit:10;stroke-width:30px;}.cls-1{stroke-linecap:round;}</style></defs><path d="M181.05,45h.77A136,136,0,0,1,317,181c0,75-61,136-136.11,136h-.16a135.53,135.53,0,0,1-66.54-17.5,69.22,69.22,0,0,0-34-8.93,69.92,69.92,0,0,0-8.57.53,68.88,68.88,0,0,0-8.6-42.37l0,0,0,0A136.24,136.24,0,0,1,181.05,45m0-30C90,15,15.36,89.24,15,180.4a165.17,165.17,0,0,0,22,83.21,38.94,38.94,0,0,1,2.84,32.46L23,343.27a1.87,1.87,0,0,0,1.13,2.39,1.71,1.71,0,0,0,.63.11,1.86,1.86,0,0,0,.92-.24L61,325.62a39.1,39.1,0,0,1,38.44,0A165.3,165.3,0,0,0,180.73,347h.21C272.49,347,347,272.55,347,181A166,166,0,0,0,182,15Z" transform="translate(-15 -15)"/><line class="cls-1" x1="71" y1="113" x2="242" y2="113"/><line class="cls-1" x1="110" y1="162" x2="281" y2="162"/><path class="cls-2" d="M272.93,61.22C342.36,80.87,417,128,417,220.4a166.7,166.7,0,0,1-22,83.21,38.94,38.94,0,0,0-2.84,32.46L409,383.27a1.87,1.87,0,0,1-1.13,2.39,1.83,1.83,0,0,1-1.55-.13L371,365.62a39.07,39.07,0,0,0-38.44,0,165.9,165.9,0,0,1-196.23-24.69h0L108,313" transform="translate(-15 -15)"/></svg>