<svg id="Layer_1" data-name="Layer 1" xmlns="http://www.w3.org/2000/svg" viewBox="0 0 2774.56 3065.42"><defs><style>.cls-1{fill:#f2f2f2;fill-rule:evenodd;}</style></defs><path class="cls-1" d="M3389.68,3498c-227,199.37,44.75,512.16,520.09,510.81-261.88-183.54-82.38-329.89-236.33-510.8-54.38-63.92-134.39-93.7-228.65-40q-17.46,133.65,114.69,278.06Q3385.86,3601.81,3389.71,3498l0,0Zm-185.94-75.91L3332.49,3309l112.72,80.1-3.68,3.23a378.85,378.85,0,0,0-148.86,130.74l-24.05,21.12-64.88-122.11ZM2932,3112.67l128.75-113.08,235,267.52-128.75,113.08-235-267.52ZM1150.2,954.07c32.64-28.66,89.93,5.09,145.69,46.22,695.37,512.62,745.9,648.75,1728.47,1956.62l-130,114.19C1724.26,1927.92,1595.79,1860.23,1177.22,1104.52,1143.63,1043.91,1117.55,982.75,1150.2,954.07Z" transform="translate(-1135.22 -943.4)"/></svg>